Ramp_Up_DEG
version=1
nRows=37
nColumns=18
inDegrees=yes
Units are S.I. units (second, meters, Newtons, ...)
Angles are in degrees.

endheader
time	pelvis_tilt	pelvis_list	pelvis_rotation	pelvis_tx	pelvis_ty	pelvis_tz	hip_flexion_r	hip_adduction_r	hip_rotation_r	knee_angle_r	ankle_angle_r	hip_flexion_l	hip_adduction_l	hip_rotation_l	knee_angle_l	ankle_angle_l	lumbar_extension
1.85	-8.95710695	-1.56638232	-2.12602094	-0.00335366	0.90426762	-0.00320121	17.17535712	3.20437772	0	-25.75351904	31.9459062	17.47572331	-3.94721182	0	-25.06879307	33.00504214	-5.00000214
1.867	-8.96037808	-1.55349516	-2.12712879	-0.0034092	0.90424425	-0.00290642	17.17693978	3.20297786	0	-25.75252509	31.94468557	17.47594651	-3.96247837	0	-25.06823086	33.00488143	-5.00000214
1.883	-9.01228242	-1.6130332	-2.20975965	-0.00367847	0.90423215	-0.00220724	17.24506626	3.3227881	0	-25.72451823	31.88737178	17.51254923	-4.10062148	0	-25.02218908	32.99620808	-5.00000214
1.9	-9.07692043	-1.62811574	-2.28148639	-0.00404498	0.90422657	-0.00167537	17.33643458	3.38357721	0	-25.6973403	31.84641929	17.55189099	-4.17399053	0	-24.93751243	32.99201249	-5.00000214
1.917	-9.14889974	-1.63940378	-2.36779418	-0.0043788	0.90415655	-0.00111145	17.47541057	3.44320869	0	-25.75289083	31.78652535	17.5747753	-4.24700306	0	-24.81627887	32.96547027	-5.00000214
1.933	-9.15407026	-1.62190857	-2.3644026	-0.00434504	0.90406146	-0.00073384	17.48199864	3.44025515	0	-25.7598713	31.78504855	17.56696252	-4.265714	0	-24.81556647	32.96364738	-5.00000214
1.95	-9.19012356	-1.58680118	-2.48567152	-0.00450539	0.903787	-0.00018961	17.87612342	3.44336517	0	-26.45028107	31.86476674	17.50569842	-4.2897127	0	-24.63833176	32.953993	-5.00000214
1.967	-9.33269505	-1.63432289	-2.63838583	-0.0052482	0.90368151	0.00079025	18.07664673	3.57662463	0	-26.40751043	31.8262659	17.64147091	-4.44794076	0	-24.54384203	32.95661518	-5.00000214
1.983	-9.26442658	-1.66647453	-2.55479249	-0.00484142	0.90353079	0.00156992	18.08851196	3.65417232	0	-26.65967309	31.86584629	17.54083775	-4.54237131	0	-24.52064868	32.9817064	-5.00000214
2	-9.29346205	-1.62481927	-2.74104209	-0.00507939	0.90319426	0.00253475	18.44299409	3.68691157	0	-27.29926027	32.16208701	17.49099663	-4.58846661	0	-24.41917339	33.12009103	-5.00000214
2.017	-9.30434783	-1.66828488	-2.82526577	-0.00500432	0.90312387	0.00386644	18.52654026	3.84243725	0	-27.44975084	32.20738863	17.46173984	-4.74492181	0	-24.39958915	33.10495893	-5.00000214
2.033	-9.42007031	-1.63011716	-2.9679163	-0.00535144	0.90279987	0.00513055	18.9265284	3.92007687	0	-27.93895802	32.27337232	17.56347841	-4.81593884	0	-24.38222853	33.10346024	-5.00000214
2.05	-9.47181346	-1.66141765	-3.10725256	-0.00549586	0.90268225	0.00678103	19.04614339	4.09836467	0	-28.04533231	32.29625845	17.58415553	-4.98527914	0	-24.36789279	33.07798489	-5.00000214
2.067	-9.48913312	-1.63942065	-3.29955438	-0.00545825	0.90259706	0.00847445	19.09788055	4.2132755	0	-28.09536448	32.33519027	17.58412838	-5.0938274	0	-24.43565632	33.06329916	-5.00000214
2.083	-9.64361366	-1.66337182	-3.4958293	-0.00598473	0.90200597	0.01049531	19.55843698	4.41942202	0	-28.60682856	32.54115402	17.91959574	-5.29480813	0	-24.81395724	33.22194799	-5.00000214
2.1	-9.66070467	-1.68960954	-3.71469883	-0.00588985	0.90178864	0.012683	19.65809506	4.63252966	0	-28.76264398	32.54346257	17.98198052	-5.49522647	0	-25.02664673	33.28244513	-5.00000214
2.117	-9.65593958	-1.70169319	-3.9714009	-0.0056818	0.90156315	0.01504678	19.71740413	4.845728	0	-28.90563568	32.5138265	18.05614299	-5.69260745	0	-25.34955597	33.34434197	-5.00000214
2.133	-9.64983985	-1.70409547	-4.2239403	-0.00537617	0.90124585	0.01757896	19.70732365	5.044907	0	-28.92472909	32.48685691	18.24333344	-5.89224073	0	-25.91364903	33.42689994	-5.00000214
2.15	-9.6347014	-1.69980333	-4.40722784	-0.00491116	0.90070895	0.02007679	19.71183126	5.22475033	0	-29.02966557	32.57222875	18.62053471	-6.06303904	0	-26.84453556	33.60615108	-5.00000214
2.167	-9.48697586	-1.65994375	-4.51908154	-0.00375128	0.89999522	0.02253378	19.75594965	5.36040896	0	-29.64716259	32.90017146	18.87959517	-6.16512939	0	-27.89753215	33.85649547	-5.00000214
2.183	-9.46317068	-1.6336189	-4.77942809	-0.00339208	0.89928377	0.02534254	19.87782258	5.56572998	0	-30.01282716	33.07301462	19.33060704	-6.334343	0	-29.01223214	33.9043499	-5.00000214
2.2	-9.42352021	-1.54925114	-5.06642	-0.00296282	0.89848257	0.02796301	20.03319089	5.68996693	0	-30.48169408	33.3519753	19.81811443	-6.42330959	0	-30.22210483	34.01409994	-5.00000214
2.217	-9.35905104	-1.47028298	-5.40151233	-0.00239445	0.89763806	0.03067756	20.1231688	5.82709571	0	-30.90101546	33.67659556	20.37715102	-6.52777055	0	-31.67804712	34.15448706	-5.00000214
2.233	-9.25998119	-1.47403397	-5.69001578	-0.00153616	0.89697432	0.03360527	19.9707691	6.0522185	0	-30.94773552	33.92494988	20.98272142	-6.73706226	0	-33.30837672	34.1556181	-5.00000214
2.25	-9.18410964	-1.4647261	-6.00308122	-0.00074306	0.8964035	0.03660467	19.83034859	6.26864175	0	-30.95866946	34.05708533	21.68638767	-6.94405916	0	-35.05293518	34.04363619	-5.00000214
2.267	-9.14071049	-1.45235701	-6.33671532	-4.934E-05	0.89587658	0.03964342	19.72052065	6.49384157	0	-30.96699743	34.15274863	22.55287283	-7.16390434	0	-37.03669632	33.70858875	-5.00000214
2.283	-9.0964004	-1.41304755	-6.66796522	0.0008389	0.89553033	0.04254891	19.56811534	6.66958005	0	-30.92909252	34.22619778	23.46899159	-7.35443455	0	-39.13216931	33.1578099	-5.00000214
2.3	-9.11882781	-1.34758223	-7.04067994	0.00141933	0.89525169	0.04544695	19.54392946	6.83033813	0	-30.95469777	34.24781899	24.61101131	-7.55086048	0	-41.45222779	32.2985652	-5.00000214
2.317	-9.08013783	-1.30592112	-7.39631214	0.0023862	0.89530863	0.04838771	19.29867836	7.00638537	0	-30.72079934	34.22499393	25.78957937	-7.76743242	0	-43.91178748	31.18088429	-5.00000214
2.333	-9.09022981	-1.2213987	-7.78083998	0.00322895	0.89535999	0.05117207	19.17588719	7.13305609	0	-30.59101062	34.16891055	27.16548386	-7.94582059	0	-46.55559674	29.81436264	-5.00000214
2.35	-9.06503291	-1.19678525	-8.16209146	0.00462509	0.89573543	0.05428415	18.83583145	7.33592491	0	-30.17350454	34.06100193	28.50280483	-8.22813928	0	-49.25524239	28.37929824	-5.00000214
2.367	-9.15854262	-1.0732212	-8.42865953	0.00492971	0.89581029	0.05658716	18.92792018	7.3743913	0	-30.20354301	33.84958646	30.30587193	-8.35752489	0	-52.16975784	26.8106403	-5.00000214
2.383	-9.11419419	-1.05114631	-8.70994037	0.00658611	0.89608652	0.0591635	18.52556788	7.49568734	0	-29.78537622	33.82159305	31.81024819	-8.56314302	0	-54.96174184	26.03101908	-5.00000214
2.4	-9.12031046	-1.02689165	-8.84351006	0.00802795	0.89630446	0.06149003	18.18240905	7.6018386	0	-29.34795884	33.81776009	33.55694356	-8.77918454	0	-57.90298554	26.60427513	-5.00000214
2.417	-9.15945835	-1.00839745	-8.93818554	0.00947516	0.89638213	0.06361465	17.9039052	7.68838948	0	-28.97720938	33.87796106	35.45998135	-8.99487027	0	-60.75491372	27.57898657	-5.00000214
2.433	-9.18927806	-0.98284102	-8.90915451	0.01125989	0.89669979	0.0654045	17.51204522	7.72513787	0	-28.438968	33.80416495	37.40495892	-9.14696155	0	-63.32013035	28.50498553	-5.00000214
2.45	-9.24378056	-0.93874434	-8.84838022	0.01305222	0.8970545	0.06684812	17.25692926	7.73182903	0	-28.12538208	33.72497267	39.37526192	-9.21035998	0	-65.43398823	29.77930609	-5.00000214
